<?xml version="1.0" encoding="UTF-8" standalone="no"?>
<!-- Created with Inkscape (http://www.inkscape.org/) -->

<svg
   width="210mm"
   height="297mm"
   viewBox="0 0 210 297"
   version="1.1"
   id="svg1"
   inkscape:version="1.4 (86a8ad7, 2024-10-11)"
   sodipodi:docname="logo.svg"
   inkscape:export-filename="logo.png"
   inkscape:export-xdpi="68.417511"
   inkscape:export-ydpi="68.417511"
   xmlns:inkscape="http://www.inkscape.org/namespaces/inkscape"
   xmlns:sodipodi="http://sodipodi.sourceforge.net/DTD/sodipodi-0.dtd"
   xmlns="http://www.w3.org/2000/svg"
   xmlns:svg="http://www.w3.org/2000/svg">
  <sodipodi:namedview
     id="namedview1"
     pagecolor="#505050"
     bordercolor="#eeeeee"
     borderopacity="1"
     inkscape:showpageshadow="0"
     inkscape:pageopacity="0"
     inkscape:pagecheckerboard="0"
     inkscape:deskcolor="#505050"
     inkscape:document-units="mm"
     inkscape:zoom="0.68862935"
     inkscape:cx="396.43968"
     inkscape:cy="561.25984"
     inkscape:window-width="1920"
     inkscape:window-height="991"
     inkscape:window-x="-9"
     inkscape:window-y="-9"
     inkscape:window-maximized="1"
     inkscape:current-layer="layer1" />
  <defs
     id="defs1" />
  <g
     inkscape:label="Layer 1"
     inkscape:groupmode="layer"
     id="layer1">
    <path
       style="fill:#e6e6e6;stroke-width:55;stroke-dasharray:none"
       d="m 44.953427,145.23415 c -0.17871,1.14153 0.142971,2.3142 0,3.45796 -1.606536,12.8523 -0.768434,26.54244 -0.768434,39.57438 0,4.27636 -0.425799,8.8054 0,13.06339 0.323929,3.23929 1.146831,6.50841 1.921086,9.60543 0.306171,1.22469 0.08373,2.64023 0.384218,3.84218 0.26148,1.04592 0.768434,1.96171 0.768434,3.07374"
       id="path7"
       inkscape:export-filename="path7.png"
       inkscape:export-xdpi="68.417511"
       inkscape:export-ydpi="68.417511" />
    <path
       style="fill:#e6e6e6;stroke-width:55;stroke-dasharray:none"
       d="m 38.037516,214.00905 c 1.536869,-0.25614 3.053466,-0.71474 4.610607,-0.76843 11.3372,-0.39094 22.839741,0 34.195343,0 4.994825,0 9.98965,0 14.984476,0 1.92456,0 4.274177,-0.37466 6.147477,0 0.280818,0.0562 0.485952,0.33713 0.768434,0.38421 1.260667,0.21012 12.729957,0.27547 13.831827,0 0.95814,-0.23953 1.64751,-0.38421 2.68952,-0.38421"
       id="path8" />
    <path
       style="fill:#e6e6e6;stroke-width:55;stroke-dasharray:none"
       d="m 109.50194,148.69211 c 0,8.47497 0.14136,7.22227 -0.38422,15.36869 -0.41354,6.40991 -0.38422,12.78654 -0.38422,19.21087 0,5.12296 -0.12469,10.27953 0.38422,15.36869 0.16657,1.66568 0.56051,3.33142 0.76844,4.99482 0.1112,0.88959 -0.14739,1.80522 0,2.68953 0.47341,2.84046 0.76843,5.52861 0.76843,8.45278 0,1.28072 0,2.56145 0,3.84217 0,0.25286 0,2.13126 0,1.15265"
       id="path9" />
    <path
       style="fill:#e6e6e6;stroke-width:55;stroke-dasharray:none"
       d="m 35.347994,156.37645 c 6.546808,0.28778 13.051928,1.20133 19.595084,1.53687 9.719072,0.49842 20.178961,0 29.968952,0 3.755686,0 7.780734,-0.31215 11.526519,0 2.438128,0.20318 4.862001,0.56526 7.300131,0.76844 5.19021,0.43251 10.5287,0 15.75291,0"
       id="path10" />
    <path
       style="fill:#e6e6e6;stroke-width:55;stroke-dasharray:none"
       d="m 34.963777,168.28719 c 0.128071,-0.76843 0.08459,-1.5862 0.384217,-2.3053 0.355209,-0.8525 1.047393,-1.52214 1.53687,-2.30531 1.599575,-2.55932 2.375878,-4.26996 4.22639,-6.53169 1.422009,-1.73801 3.146396,-3.28658 4.610608,-4.99483 1.279652,-1.49293 2.451068,-3.2195 3.842173,-4.61061 0.579874,-0.57987 1.341216,-0.95699 1.921087,-1.53687 0.707303,-0.7073 1.213784,-1.598 1.921087,-2.3053 0.202501,-0.2025 0.565935,-0.18171 0.768434,-0.38422 1.742083,-1.74208 2.978634,-3.92728 4.610608,-5.76326 4.194712,-4.71905 7.648517,-10.3022 10.373868,-15.75291 1.48082,-2.96163 3.540591,-5.54431 4.994825,-8.45278 0.473155,-0.94631 -1.115279,0.34685 0.384218,-1.15265 0.09056,-0.0906 0.256145,0 0.384217,0"
       id="path11" />
    <path
       style="fill:#e6e6e6;stroke-width:55;stroke-dasharray:none"
       d="m 127.94437,179.04528 c -6.06506,-6.57049 -2.79701,-3.32223 -8.837,-8.837 -3.67749,-3.35771 -7.3351,-6.81699 -11.1423,-9.98965 -1.48222,-1.23518 -2.50412,-2.88834 -3.84217,-4.22639 -0.32653,-0.32653 -0.79791,-0.47282 -1.15266,-0.76844 -1.66315,-1.38596 -2.9666,-3.20146 -4.610604,-4.61061 -4.328626,-3.71025 -9.018603,-6.83066 -13.447606,-10.37387 -1.70483,-1.36386 -3.268155,-4.08519 -4.610608,-5.76326 -1.091518,-1.36439 -3.38118,-3.20192 -4.226391,-4.6106 -0.20837,-0.34729 -0.203094,-0.79041 -0.384217,-1.15265 -0.270441,-0.54089 -1.19797,-1.08501 -1.53687,-1.53687 -1.05497,-1.40663 -2.182836,-2.18284 -3.457956,-3.45796 -0.591454,-0.59146 -0.945414,-1.71385 -1.536869,-2.3053 -0.202499,-0.2025 -0.565933,-0.18172 -0.768435,-0.38422 -0.136977,-0.13698 -1.760095,-2.36754 -1.921086,-2.68952 -0.118684,-0.23737 -0.2418,-1.39445 -0.384217,-1.53687 -0.512289,-0.51229 -0.384218,0.64036 -0.384218,-0.38422"
       id="path12" />
    <path
       style="fill:#ff0000;stroke-width:55;stroke-dasharray:none"
       d="m 76.075031,212.08797 c 0,-0.51229 0.512289,-1.53687 0,-1.53687 -0.512289,0 0.08422,2.04219 0,1.53687 -1.073904,-1.72774 -0.13,-3.59953 -0.384217,-5.37905 -0.05728,-0.40093 -0.326941,-0.75172 -0.384218,-1.15265 -0.144896,-1.01428 0.127085,-2.05707 0,-3.07374 -0.0655,-0.52398 -0.318719,-1.01289 -0.384217,-1.53687 -0.111196,-0.88958 0.126786,-1.80202 0,-2.68952 -0.07468,-0.52275 -0.331674,-1.01143 -0.384217,-1.53687 -0.07646,-0.76462 0.09531,-1.5428 0,-2.3053 -0.09755,-0.78042 -0.655087,-1.8961 -0.768435,-2.68952 -0.128188,-0.89733 -0.182076,-2.54758 0,-3.45796 0.21645,-1.08225 0.768435,-1.30177 0.768435,-2.3053"
       id="path14" />
    <path
       style="fill:#918a6f;stroke-width:55;stroke-dasharray:none"
       d="m 59.169469,189.41914 c 5.747903,-2.402 11.98286,-1.92108 18.058214,-1.92108 0.93944,0 7.406246,-0.47692 8.836999,0 0.271682,0.0906 0.490606,0.31476 0.768434,0.38421 0.517755,0.12944 2.333017,-0.3565 2.689522,0 0.512288,0.5123 -0.640364,0.38422 0.384217,0.38422"
       id="path15" />
    <path
       style="fill:#666666;stroke-width:55;stroke-dasharray:none"
       d="m 52.253557,176.35575 c -0.112943,11.29834 -0.384218,22.49527 -0.384218,33.81113 0,1.41697 -0.354703,7.35916 0,8.06856 0.239311,0.47862 3.348136,-0.64492 3.842174,-0.76843 0.410517,-0.10263 3.733363,-0.27541 3.842173,-0.38422 0.09056,-0.0906 -0.09056,-0.29366 0,-0.38422 0.512289,-0.51229 2.56145,0.51229 3.073739,0 0.09056,-0.0906 -0.09056,-0.29365 0,-0.38421 0.574272,-0.57428 2.692968,0.38249 3.457956,0 0.595204,-0.2976 0.384217,-7.84876 0.384217,-9.22122 0,-6.91591 0,-13.83182 0,-20.74774 0,-1.06065 0.277675,-9.4343 0,-9.98965 -0.081,-0.162 -0.32694,-0.21239 -0.384217,-0.38421 -0.295876,-0.88763 0.412927,-2.24789 0,-3.07374 -0.49784,-0.99568 -0.651148,-2.07073 -1.152652,-3.07374 -0.218269,-0.43654 0.08242,-0.98783 -0.384218,-1.92109 -0.175815,-0.35163 0.260691,-1.27618 0,-1.53687 -0.162054,-0.16205 -1.897245,0.54207 -2.689521,0.76844 -3.781698,1.08048 -7.503197,2.38653 -11.142303,3.84217 -0.235479,0.0942 -2.689521,0.75049 -2.689521,0.76844 0,0.31267 1.317757,0.76843 1.536869,0.76843"
       id="path18" />
    <path
       style="fill:#666666;stroke-width:55;stroke-dasharray:none"
       d="m 53.790426,160.60284 c 2.31889,-3.20129 5.28992,-5.87086 7.300129,-9.22121 0.807665,-1.34611 2.513441,-2.1986 3.457956,-3.45796 0.206246,-0.27499 1.06553,-1.83396 1.152652,-1.92109 0.202502,-0.20249 0.565936,-0.18171 0.768435,-0.38421 0.405,-0.405 0.363434,-1.13187 0.768434,-1.53687 0.202502,-0.2025 0.565936,-0.18172 0.768435,-0.38422 0.09056,-0.0906 -0.05727,-0.26967 0,-0.38422 0.79951,-1.59902 -0.02652,0.41075 0.768435,-0.38421 0.09056,-0.0906 -0.09056,-0.29366 0,-0.38422 0.09056,-0.0906 0.293656,0.0906 0.384217,0 0.202502,-0.2025 0.225364,-0.53015 0.384217,-0.76844 0.45442,-0.68162 3.065347,-4.05632 3.457956,-3.84217 4.587465,2.50226 9.199883,4.97931 13.447607,8.06856 0.663215,0.48234 1.225674,1.10224 1.921087,1.53687 0.659103,0.41194 1.516488,0.34346 1.921086,1.15266 0.771594,1.54319 1.727663,3.64612 2.305304,5.37904 0.324747,0.97424 0.693103,1.00199 1.152652,1.92109 0.114552,0.2291 -0.081,0.52543 0,0.76843 0.169625,0.50887 1.956075,2.72451 2.305304,3.07374 0.405,0.405 1.060307,0.45072 1.536869,0.76843 1.102027,0.73469 1.921087,2.9045 1.921087,2.30531 0,-0.405 -0.750779,0.33398 -1.152652,0.38421 -0.7625,0.0953 -1.540682,-0.0765 -2.305304,0 -2.300835,0.23009 -4.590473,0.95887 -6.915912,1.15266 -4.784754,0.39873 -9.801598,0 -14.600258,0 -0.217665,0 -6.159244,0.38029 -7.30013,0 -0.397978,-0.13266 -0.77148,-0.57785 -1.152651,-0.76844 -0.914231,-0.45711 -2.435644,-0.89707 -3.457956,-1.15265 -0.726552,-0.18164 -1.569646,0.14713 -2.305304,0 -3.225115,-0.64502 -2.883998,-0.29989 -6.531695,-1.92109 z"
       id="path19" />
    <path
       style="fill:#666666;stroke-width:55;stroke-dasharray:none"
       d="m 92.212159,197.10349 c -1.260258,6.30129 -0.06144,-0.24665 -0.768435,14.60026 -0.03174,0.6665 -0.961874,7.29747 -0.384217,8.45278 0.101685,0.20337 2.265188,0 2.689521,0 2.155846,0 4.444537,-0.351 6.531692,-0.76844 1.35929,-0.27185 2.8538,-0.15545 4.22639,-0.38421 0.3995,-0.0666 0.75975,-0.28599 1.15266,-0.38422 0.24849,-0.0621 0.58731,0.18112 0.76843,0 0.36224,-0.36224 0.0566,-1.02771 0,-1.53687 -0.15262,-1.37363 -0.61581,-2.85276 -0.76843,-4.22639 -0.0707,-0.63644 0,-1.28072 0,-1.92109 -0.12808,-0.8965 -0.24652,-1.79444 -0.38422,-2.68952 -0.6239,-4.05533 -0.38422,-8.19153 -0.38422,-12.29495 0,-1.02458 0,-2.04916 0,-3.07374 0,-0.12807 0.12425,-0.35316 0,-0.38422 -2.55538,-0.63884 -7.477368,0.18868 -9.98965,0.76844 -0.789257,0.18213 -1.514591,0.59272 -2.305304,0.76843 -0.375068,0.0833 -0.779907,-0.0932 -1.152652,0 -1.899113,0.47478 0.804061,0.38422 -0.768434,0.38422"
       id="path20" />
    <path
       style="fill:#f9f9f9;stroke-width:55;stroke-dasharray:none"
       d="m 93.364811,170.59249 c -0.459269,3.83656 -0.384218,7.67906 -0.384218,11.52652 0,0.90901 -0.107143,5.65612 0,5.76326 0.369237,0.36924 7.966817,-0.97861 8.836997,-1.15265 0.2169,-0.0434 1.41855,-0.14757 1.53687,-0.38422 0.23479,-0.46957 0,-2.22373 0,-2.68952 0,-1.75405 -0.24035,-3.2685 -0.38422,-4.99482 -0.26123,-3.13487 0,-6.45115 0,-9.60544 0,-0.0786 0.18991,-2.49961 0,-2.68952 -0.40583,-0.40583 -3.393671,-0.0897 -3.842169,0 -1.182206,0.23645 -2.275748,0.91622 -3.457956,1.15266 -0.191183,0.0382 -2.294954,0.34799 -2.305304,0.38421 -0.24629,0.86202 0,1.79302 0,2.68952 z"
       id="path21" />
    <path
       style="fill:#f9f9f9;stroke-width:55;stroke-dasharray:none"
       d="m 46.490297,214.77749 c 1.02458,-0.25615 2.031994,-0.59481 3.073738,-0.76844 2.901109,-0.48352 8.363498,0 11.52652,0 8.068564,0 16.137128,0 24.205692,0 3.457956,0 6.915912,0 10.373868,0 0.972952,0 2.861807,-0.32678 3.842173,0 1.440372,0.48013 2.731482,0.13507 4.226392,0.38422 1.4436,0.2406 2.74214,0.38422 4.22639,0.38422"
       id="path22" />
    <path
       style="fill:#aa0000;stroke-width:55;stroke-dasharray:none"
       d="m 56.864165,158.68176 c 4.84487,-0.69213 1.783913,-0.38422 9.221216,-0.38422 9.349287,0 18.698577,0 28.047864,0 3.073739,0 6.147475,0 9.221215,0 1.07762,0 2.42725,-0.25768 3.45796,0 0.39291,0.0982 0.75552,0.30479 1.15265,0.38422 0.20228,0.0404 1.73711,-0.18398 1.92109,0 0.51229,0.51229 -0.64036,0.38421 0.38421,0.38421"
       id="path23" />
    <path
       style="fill:#aa0000;stroke-width:55;stroke-dasharray:none"
       d="m 66.469598,188.65071 c 6.531694,0 13.063389,0 19.595084,0 1.02458,0 2.049158,0 3.073738,0 0.256146,0 0.768435,0.25614 0.768435,0 0,-0.12807 -0.256146,0 -0.384217,0 -1.408798,0 -2.817593,0 -4.226391,0 -3.084092,0 -6.160109,0.10593 -9.221216,0.38422 -1.426012,0.12963 -2.805554,0.59083 -4.226391,0.76843 -1.588976,0.19862 -5.242705,-1.16629 -5.379042,-1.15265 -1.202238,0.12022 -1.993061,1.38075 -3.073739,1.92108 -0.04687,0.0234 -5.139557,0.11975 -5.379042,0 -0.604393,-0.30219 -0.43561,-0.38421 -1.152652,-0.38421"
       id="path24" />
    <path
       style="fill:#aa0000;stroke-width:55;stroke-dasharray:none"
       d="m 74.153944,189.41914 c 1.245659,6.2283 0.768435,2.53609 0.768435,11.14231 0,1.92108 0.238281,3.857 0,5.76326 -0.169796,1.35838 -0.384217,2.47783 -0.384217,3.84217"
       id="path25" />
    <path
       style="fill:#aa0000;stroke-width:55;stroke-dasharray:none"
       d="m 62.243207,189.80336 c 7.240421,-2.15201 15.185649,-1.68724 22.668823,-1.92109 0.01048,-2.6e-4 4.598521,-0.0121 4.610608,0 0.128071,0.12808 -0.203095,0.38422 -0.384218,0.38422"
       id="path26" />
    <path
       style="fill:#f9f9f9;stroke-width:55;stroke-dasharray:none"
       d="m 74.538162,192.10866 c 0.964671,8.03814 0.768434,16.1213 0.768434,24.2057"
       id="path27" />
    <path
       style="fill:#f9f9f9;stroke-width:55;stroke-dasharray:none"
       d="m 51.485122,157.14489 c 2.177232,0 4.356071,-0.0837 6.531695,0 2.327978,0.0895 4.33705,0.24744 6.147477,1.15265 0.489712,0.24486 1.387713,-0.13334 1.921087,0 0.277828,0.0695 0.490606,0.31476 0.768434,0.38422 1.319895,0.32997 3.236413,0 4.610608,0 3.073739,0 6.147477,0 9.221216,0 2.84281,0 6.039914,0.39958 8.836999,0 1.97164,-0.28167 3.781869,-0.38422 5.763259,-0.38422 0.877732,0 7.915713,-0.46064 8.837003,0 1.59928,0.79964 4.23263,0.38422 6.14747,0.38422"
       id="path28" />
    <path
       style="fill:#666666;stroke-width:55;stroke-dasharray:none"
       d="m 290.08408,215.1617 0.38423,1.15266"
       id="path29" />
    <path
       style="fill:#666666;stroke-width:55;stroke-dasharray:none"
       d="m 93.364811,167.90297 c 2.586326,0.0312 4.834313,-0.98891 7.300129,-1.53687 0.63749,-0.14166 1.27693,-0.27685 1.92109,-0.38421 0.25266,-0.0421 0.58731,0.18112 0.76843,0 0.12808,-0.12808 0.25615,-0.51229 0.38422,-0.38422 0.97869,0.97869 -1.57227,5.86948 -1.92109,6.91591 -0.56989,1.70967 -0.89783,3.59529 -1.15265,5.37904 -0.21893,1.53254 -0.32228,6.65558 0.38422,8.06857 0.14283,0.28566 0.81159,1.49372 0.38421,1.92108 -0.19052,0.19052 -1.651178,0 -1.921082,0 -0.696161,0 -7.128372,0.17176 -7.300129,0 -0.352208,-0.3522 1.013997,-3.28755 1.152652,-3.84217 0.516736,-2.06694 2.335466,-11.0669 1.536869,-13.06339 -0.425434,-1.06358 -1.02458,-2.04916 -1.536869,-3.07374 z"
       id="path30" />
    <path
       style="fill:#666666;stroke-width:55;stroke-dasharray:none"
       d="m 92.596376,168.28719 c 0.181129,0.19874 10.857674,-0.28463 11.142304,0 0.26123,0.26123 -0.38422,9.11904 -0.38422,10.75809 0,2.04947 0.48023,4.8028 -0.38422,6.53169 -0.11455,0.2291 0.18113,0.58731 0,0.76843 -0.30027,0.30029 -1.15658,0.25746 -1.53687,0.38422 -0.17182,0.0573 -0.25614,0.25615 -0.38421,0.38422 -0.38422,0.12807 -0.75552,0.30479 -1.152655,0.38422 -1.66057,0.33211 -3.674266,0 -5.379042,0 -0.172032,0 -1.847075,0.14802 -1.921087,0 -0.554098,-1.1082 0.246584,-5.04641 0.384217,-6.14748 0.09531,-0.7625 -0.150701,-1.55179 0,-2.3053 0.707483,-3.53741 0.612016,-7.27128 -0.384217,-10.75809 z"
       id="path31" />
  </g>
</svg>
